<svg xmlns="http://www.w3.org/2000/svg" viewBox="0 0 32 32" width="32" height="32">
  <!-- Chloe's Bedroom OS — Animated Favicon -->
  <!-- Pink monochrome Chloe ghost with glow -->

  <defs>
    <!-- Pink glow filter -->
    <filter id="glow">
      <feGaussianBlur stdDeviation="1.5" result="blur"/>
      <feMerge>
        <feMergeNode in="blur"/>
        <feMergeNode in="SourceGraphic"/>
      </feMerge>
    </filter>
    <!-- Radial background glow -->
    <radialGradient id="bg-glow" cx="50%" cy="45%" r="50%">
      <stop offset="0%" stop-color="#1A161A"/>
      <stop offset="100%" stop-color="#080808"/>
    </radialGradient>
  </defs>

  <!-- Background -->
  <rect width="32" height="32" rx="6" fill="url(#bg-glow)"/>

  <!-- Outer glow halo -->
  <ellipse cx="16" cy="15" rx="10" ry="11" fill="#FFB2EF" opacity="0.08" filter="url(#glow)"/>

  <!-- Ghost body (near-white pink) -->
  <rect x="12" y="4" width="8" height="2" fill="#FFF0FA"/>
  <rect x="10" y="6" width="12" height="2" fill="#FFF0FA"/>
  <rect x="8" y="8" width="16" height="2" fill="#FFF0FA"/>
  <rect x="8" y="10" width="16" height="2" fill="#FFF0FA"/>
  <rect x="8" y="12" width="16" height="2" fill="#FFF0FA"/>
  <rect x="8" y="14" width="16" height="2" fill="#FFF0FA"/>
  <rect x="8" y="16" width="16" height="2" fill="#FFF0FA"/>
  <rect x="8" y="18" width="16" height="2" fill="#FFF0FA"/>

  <!-- Eyes (bright pink - THE color) -->
  <rect x="10" y="10" width="4" height="4" fill="#FFB2EF" filter="url(#glow)"/>
  <rect x="18" y="10" width="4" height="4" fill="#FFB2EF" filter="url(#glow)"/>
  <!-- Eye highlights (white) -->
  <rect x="11" y="11" width="1" height="1" fill="#FFFFFF"/>
  <rect x="19" y="11" width="1" height="1" fill="#FFFFFF"/>

  <!-- Mouth (subtle smile) -->
  <rect x="13" y="16" width="6" height="1" fill="#1A161A" opacity="0.4"/>

  <!-- Ghost tail — wavy bottom -->
  <rect x="8" y="20" width="4" height="4" fill="#FFF0FA"/>
  <rect x="14" y="20" width="4" height="4" fill="#FFF0FA"/>
  <rect x="20" y="20" width="4" height="4" fill="#FFF0FA"/>
  <rect x="12" y="20" width="2" height="2" fill="#FFF0FA"/>
  <rect x="18" y="20" width="2" height="2" fill="#FFF0FA"/>

  <!-- Outline (deep pink) -->
  <rect x="10" y="4" width="2" height="2" fill="#1A161A"/>
  <rect x="20" y="4" width="2" height="2" fill="#1A161A"/>
  <rect x="8" y="6" width="2" height="2" fill="#1A161A"/>
  <rect x="22" y="6" width="2" height="2" fill="#1A161A"/>
  <rect x="6" y="8" width="2" height="14" fill="#1A161A"/>
  <rect x="24" y="8" width="2" height="14" fill="#1A161A"/>

  <!-- Bottom outline -->
  <rect x="6" y="22" width="2" height="2" fill="#1A161A"/>
  <rect x="12" y="22" width="2" height="2" fill="#1A161A"/>
  <rect x="18" y="22" width="2" height="2" fill="#1A161A"/>
  <rect x="24" y="22" width="2" height="2" fill="#1A161A"/>
  <rect x="8" y="24" width="4" height="2" fill="#1A161A"/>
  <rect x="14" y="24" width="4" height="2" fill="#1A161A"/>
  <rect x="20" y="24" width="4" height="2" fill="#1A161A"/>

  <!-- Body shading (subtle gradient feel) -->
  <rect x="8" y="18" width="16" height="2" fill="#FFCAF3" opacity="0.5"/>

  <!-- Blush marks -->
  <rect x="9" y="14" width="2" height="1" fill="#FFB2EF" opacity="0.3"/>
  <rect x="21" y="14" width="2" height="1" fill="#FFB2EF" opacity="0.3"/>

  <!-- Idle float animation -->
  <animateTransform
    attributeName="transform"
    type="translate"
    values="0,0; 0,-1; 0,0"
    dur="3s"
    repeatCount="indefinite"
  />
</svg>
