<?xml version="1.0" encoding="UTF-8"?>
<svg width="208px" height="68px" viewBox="0 0 208 68" version="1.1" xmlns="http://www.w3.org/2000/svg" xmlns:xlink="http://www.w3.org/1999/xlink">
    <!-- Generator: Sketch 63 (92445) - https://sketch.com -->
    <title>logo/compare-credit/base</title>
    <desc>Created with Sketch.</desc>
    <defs>
        <polygon id="path-1" points="0.3389 0.1348 27.02 0.1348 27.02 27.6568 0.3389 27.6568"></polygon>
        <polygon id="path-3" points="0.1903 0.816 14.7733 0.816 14.7733 22 0.1903 22"></polygon>
    </defs>
    <g id="logo/compare-credit/base" stroke="none" stroke-width="1" fill="none" fill-rule="evenodd">
        <g id=".5-larger">
            <path d="M13.7172,32.6009 C10.1292,32.6009 7.4362,29.7949 7.4362,25.6649 C7.4362,21.5349 10.1292,18.7319 13.7172,18.7319 C16.1732,18.6959 18.4042,20.1639 19.3482,22.4399 L26.3142,19.8949 C24.2522,14.9849 19.5372,11.9039 13.7172,11.9039 C5.8562,11.9039 0.0002,17.5119 0.0002,25.6649 C0.0002,33.8179 5.8562,39.4259 13.7172,39.4259 C19.5372,39.4259 24.2562,36.3449 26.3142,31.4339 L19.3482,28.8899 C18.4042,31.1659 16.1742,32.6359 13.7172,32.6009" id="Fill-1" fill="#052F5E"></path>
            <path d="M42.8344,32.6009 C39.2684,32.6009 36.5574,29.7949 36.5574,25.6649 C36.5574,21.5349 39.2504,18.7319 42.8344,18.7319 C46.4184,18.7319 49.1114,21.5349 49.1114,25.6649 C49.1114,29.7949 46.4224,32.6009 42.8344,32.6009 M54.0624,17.4079 C52.2994,14.9299 49.7214,13.1549 46.7824,12.3979 C45.4944,12.0559 44.1674,11.8849 42.8344,11.8897935 C37.7454,11.8897935 33.4974,14.2449 31.1364,18.1169 C29.7804,20.3919 29.0834,22.9999 29.1214,25.6509 C29.0784,28.3089 29.7764,30.9269 31.1364,33.2089 C33.4974,37.0819 37.7454,39.4370552 42.8344,39.4370552 C44.1664,39.4429 45.4944,39.2749 46.7824,38.9349 C49.7214,38.1779 52.2994,36.4039 54.0624,33.9249 C55.7314,31.5009 56.6054,28.6149 56.5584,25.6679 C56.6054,22.7209 55.7324,19.8329 54.0624,17.4079" id="Fill-3" fill="#052F5E"></path>
            <path d="M113.373,32.6009 C109.789,32.6009 107.1,29.8489 107.1,25.6649 C107.1,21.4809 109.789,18.7319 113.373,18.7319 C116.957,18.7319 119.601,21.4849 119.601,25.6649 C119.601,29.8449 116.961,32.6009 113.373,32.6009 M114.853,11.9036959 C111.748,11.8839 108.814,13.3349 106.939,15.8189 L106.939,12.4519 L99.449,12.4519 L99.449,52.1309 L107.1,52.1309 L107.1,35.7149 C108.993,38.0619 111.844,39.4239 114.853,39.4189 C122.026,39.4189 127.144,33.9139 127.144,25.6579 C127.144,17.4009 122.026,11.9036959 114.853,11.9036959" id="Fill-5" fill="#052F5E"></path>
            <path d="M143.0219,18.7323 C146.6639,18.7323 149.2989,21.4843 149.2989,25.6653 C149.2989,29.8453 146.6639,32.6013 143.0219,32.6013 C139.4379,32.6013 136.7449,29.8483 136.7449,25.6653 C136.7449,21.4813 139.4379,18.7323 143.0219,18.7323 M141.4959,39.4264391 C144.5259,39.4423 147.4009,38.0773 149.3099,35.7143 L149.3099,38.8923 L156.9599,38.8923 L156.9599,12.4513 L149.4059,12.4513 L149.4059,15.7833 C147.5109,13.3323 144.5869,11.9043 141.4959,11.9211499 C134.3619,11.9211499 129.2549,17.4263 129.2549,25.6833 C129.2549,33.9393 134.3729,39.4264391 141.4959,39.4264391" id="Fill-7" fill="#052F5E"></path>
            <path d="M169.8744,25.5575 C169.8744,21.5885 172.3534,19.4195 176.6794,19.4195 C177.6084,19.4325 178.5314,19.5745 179.4224,19.8425 L179.4224,12.0075 C178.9714,11.9125 178.5094,11.8775 178.0494,11.9035 C174.3074,11.9035 171.3514,13.7545 169.6104,17.0365 L169.6104,12.4515 L162.2284,12.4515 L162.2284,38.9355 L169.8744,38.9355 L169.8744,25.5575 Z" id="Fill-9" fill="#052F5E"></path>
            <g id="Group-13" transform="translate(180.000000, 11.769200)">
                <mask id="mask-2" fill="white">
                    <use xlink:href="#path-1"></use>
                </mask>
                <g id="Clip-12"></g>
                <path d="M13.6669,6.4338 C16.8769,6.4338 18.9949,8.1798 19.6299,11.5118 L7.7079,11.5118 C8.3419,8.1978 10.3999,6.4338 13.6669,6.4338 L13.6669,6.4338 Z M18.6169,18.7878 C17.8759,20.5198 16.2959,21.4118 13.8809,21.4118 C10.3999,21.4118 8.2349,19.5078 7.6539,16.0148 L26.9129,16.0148 C26.9669,15.3238 27.0209,14.6368 27.0209,13.8958 C27.0209,5.7968 21.4279,0.1348 13.6739,0.1348 C5.9199,0.1348 0.3389,5.7968 0.3389,13.8958 C0.3389,21.9948 5.9309,27.6568 13.6849,27.6568 C19.1669,27.6568 23.2859,25.4588 25.4189,21.2678 L18.6169,18.7878 Z" id="Fill-11" fill="#052F5E" mask="url(#mask-2)"></path>
            </g>
            <path d="M136.4701,63.1112 C134.5801,63.1112 133.1641,61.6332 133.1641,59.4612 C133.1641,57.2882 134.5911,55.8062 136.4701,55.8062 C137.7641,55.7882 138.9391,56.5622 139.4371,57.7612 L143.1041,56.4222 C142.0341,53.8352 139.5371,52.2132 136.4701,52.2132 C132.3331,52.2132 129.2481,55.1662 129.2481,59.4612 C129.2481,63.7562 132.3401,66.7082 136.4701,66.7082 C139.5371,66.7082 142.0201,65.0832 143.1041,62.4992 L139.4371,61.1572 C138.9411,62.3572 137.7651,63.1322 136.4701,63.1112" id="Fill-14" fill="#052F5E"></path>
            <path d="M148.3822,54.9798 L148.3822,52.5538 L144.4952,52.5538 L144.4952,66.4938 L148.5212,66.4938 L148.5212,59.4678 C148.5212,57.3748 149.8272,56.2468 152.0882,56.2468 C152.5772,56.2538 153.0632,56.3288 153.5322,56.4688 L153.5322,52.3318 C153.2982,52.2798 153.0582,52.2608 152.8192,52.2738 C150.9422,52.2358 149.2132,53.2908 148.3822,54.9798" id="Fill-16" fill="#04305E"></path>
            <g id="Group-20" transform="translate(169.000000, 44.769200)">
                <mask id="mask-4" fill="white">
                    <use xlink:href="#path-3"></use>
                </mask>
                <g id="Clip-19"></g>
                <path d="M7.4403,18.403 C5.5503,18.403 4.1343,16.953 4.1343,14.753 C4.1343,12.551 5.5613,11.102 7.4403,11.102 C9.3203,11.102 10.7433,12.551 10.7433,14.753 C10.7433,16.953 9.3563,18.403 7.4403,18.403 L7.4403,18.403 Z M10.7433,9.456 C9.7383,8.215 8.2273,7.498 6.6343,7.505 C2.8823,7.505 0.1903,10.404 0.1903,14.753 C0.1903,19.101 2.8823,22.0000799 6.6343,22.0000799 C8.2623,22.009 9.8023,21.257 10.8003,19.967 L10.8003,21.724 L14.7733,21.724 L14.7733,0.816 L10.7433,0.816 L10.7433,9.456 Z" id="Fill-18" fill="#04305E" mask="url(#mask-4)"></path>
            </g>
            <path d="M188.5419,45.4744 C187.9169,45.4514 187.3089,45.6844 186.8579,46.1204 C186.4079,46.5574 186.1539,47.1584 186.155888,47.7864 C186.2059,49.0814 187.2659,50.1054 188.5579,50.1054 C189.8499,50.1054 190.9099,49.0814 190.959946,47.7864 C190.9639,47.1514 190.7069,46.5434 190.2489,46.1064 C189.7909,45.6684 189.1729,45.4394 188.5419,45.4744" id="Fill-21" fill="#04305E"></path>
            <polygon id="Fill-23" fill="#04305E" points="186.552 66.4902 190.579 66.4902 190.579 52.5532 186.552 52.5532"></polygon>
            <path d="M198.2177,48.4271 L194.1917,48.4271 L194.1917,52.5531 L192.1907,52.5531 L192.1907,55.8431 L194.1917,55.8431 L194.1917,61.7511 C194.1917,65.6271 196.3567,66.7621 199.3017,66.7621 C200.0907,66.7541 200.8747,66.6421 201.6347,66.4291 L201.6347,63.0831 C201.1337,63.2571 200.6097,63.3511 200.0797,63.3621 C198.7987,63.3621 198.2177,62.7751 198.2177,61.5221 L198.2177,55.8431 L201.6347,55.8431 L201.6347,52.5531 L198.2177,52.5531 L198.2177,48.4271 Z" id="Fill-25" fill="#04305E"></path>
            <polygon id="Fill-26" fill="#04305E" points="201.6347 46.0506 202.4297 46.0506 202.4297 48.1156 202.9257 48.1156 202.9257 46.0506 203.7207 46.0506 203.7207 45.5856 201.6347 45.5856"></polygon>
            <polygon id="Fill-27" fill="#04305E" points="205.6073 47.4105 204.8483 45.5855 204.2023 45.5855 204.2023 48.1155 204.6703 48.1155 204.6703 46.3545 205.3973 48.1155 205.8033 48.1155 206.5313 46.3405 206.5313 48.1155 207.0123 48.1155 207.0123 45.5855 206.3453 45.5855"></polygon>
            <path d="M161.0507,55.5882 C162.7447,55.5882 163.8577,56.5082 164.1927,58.2652 L157.9087,58.2652 C158.2257,56.5082 159.3277,55.5882 161.0507,55.5882 L161.0507,55.5882 Z M163.6577,62.0982 C163.2657,63.0142 162.4347,63.4842 161.1617,63.4842 C159.3277,63.4842 158.1867,62.4782 157.8807,60.6202 L168.0267,60.6202 C168.0557,60.2622 168.0837,59.9042 168.0837,59.5042 C168.0837,55.2342 165.1377,52.2492 161.0507,52.2492 C156.9637,52.2492 154.0177,55.2342 154.0177,59.5042 C154.0177,63.7732 156.9637,66.7582 161.0507,66.7582 C163.9397,66.7582 166.1087,65.5992 167.2357,63.3902 L163.6577,62.0982 Z" id="Fill-28" fill="#052F5E"></path>
            <polygon id="Fill-29" fill="#21A3FC" points="86.535 38.8432 94.191 38.8432 94.191 12.3922 86.535 12.3922"></polygon>
            <polygon id="Fill-30" fill="#90D1FD" points="86.535 19.3932 94.191 19.3932 94.191 12.3932 86.535 12.3932"></polygon>
            <polygon id="Fill-31" fill="#BEE0F7" points="86.535 19.8932 94.191 19.8932 94.191 19.3932 86.535 19.3932"></polygon>
            <polygon id="Fill-32" fill="#0047AB" points="60.724 38.8432 68.38 38.8432 68.38 12.3922 60.724 12.3922"></polygon>
            <polygon id="Fill-33" fill="#7FA3D5" points="60.724 19.3932 68.38 19.3932 68.38 12.3932 60.724 12.3932"></polygon>
            <polygon id="Fill-34" fill="#A8C4EB" points="60.724 19.8932 68.38 19.8932 68.38 19.3932 60.724 19.3932"></polygon>
            <polygon id="Fill-35" fill="#3ED14A" points="73.633 38.8432 81.289 38.8432 81.289 12.3922 73.633 12.3922"></polygon>
            <polygon id="Fill-36" fill="#9EE8A4" points="73.633 23.3932 81.289 23.3932 81.289 12.3932 73.633 12.3932"></polygon>
            <polygon id="Fill-37" fill="#C0F3C4" points="73.633 23.8932 81.289 23.8932 81.289 23.3932 73.633 23.3932"></polygon>
            <polygon id="Fill-38" fill="#FDCA41" points="60.724 7.1562 94.191 7.1562 94.191 0.0002 60.724 0.0002"></polygon>
            <rect id="Rectangle" fill="#A8C4EB" x="60.72" y="19" width="7.66" height="1"></rect>
            <rect id="Rectangle-Copy-6" fill="#BEE0F7" x="86.53" y="19" width="7.66" height="1"></rect>
            <rect id="Rectangle-Copy-8" fill="#B1F3B7" x="73.63" y="23" width="7.66" height="1"></rect>
        </g>
    </g>
</svg>