<svg xmlns="http://www.w3.org/2000/svg" width="24" height="24" viewBox="0 0 24 24">
  <!-- Win95-style hourglass wait cursor -->
  <g fill="none">
    <!-- Black outline -->
    <rect x="3" y="1" width="18" height="2" fill="#000000"/>
    <rect x="3" y="21" width="18" height="2" fill="#000000"/>
    <path d="M5 3 L5 8 L8 12 L5 16 L5 21 L19 21 L19 16 L16 12 L19 8 L19 3 Z" fill="#000000"/>
    <!-- White fill -->
    <path d="M6 4 L6 8 L9 12 L6 16 L6 20 L18 20 L18 16 L15 12 L18 8 L18 4 Z" fill="#FFFFFF"/>
    <!-- Sand (top) -->
    <path d="M8 5 L8 7 L10 9 L14 9 L16 7 L16 5 Z" fill="#DC9300"/>
    <!-- Sand (bottom) -->
    <path d="M8 19 L8 17 L10 15 L14 15 L16 17 L16 19 Z" fill="#DC9300"/>
    <!-- Sand stream -->
    <rect x="11" y="10" width="2" height="4" fill="#DC9300"/>
  </g>
</svg>
